<svg xmlns="http://www.w3.org/2000/svg" width="1280" height="800" viewBox="0 0 1280 800">
  <rect width="1280" height="800" fill="#0a0e1a"/>
  <rect x="350" y="100" width="580" height="600" rx="28" fill="#111827" stroke="#1e2d45"/>
  <rect x="392" y="150" width="496" height="52" rx="16" fill="#162033"/>
  <rect x="392" y="230" width="496" height="54" rx="16" fill="#162033"/>
  <rect x="392" y="300" width="496" height="54" rx="16" fill="#162033"/>
  <rect x="392" y="370" width="496" height="54" rx="16" fill="#162033"/>
  <rect x="392" y="440" width="496" height="54" rx="16" fill="#162033"/>
  <rect x="392" y="530" width="496" height="16" rx="8" fill="#1e2d45"/>
  <rect x="392" y="530" width="320" height="16" rx="8" fill="#34d399"/>
  <rect x="392" y="570" width="496" height="56" rx="16" fill="#818cf8"/>
  <text x="410" y="185" fill="#f1f5f9" font-family="Inter, sans-serif" font-size="30" font-weight="700">Registro seguro</text>
  <text x="410" y="266" fill="#64748b" font-family="Inter, sans-serif" font-size="18">Usuario</text>
  <text x="410" y="336" fill="#64748b" font-family="Inter, sans-serif" font-size="18">Correo electrónico</text>
  <text x="410" y="406" fill="#64748b" font-family="Inter, sans-serif" font-size="18">Contraseña</text>
  <text x="410" y="476" fill="#64748b" font-family="Inter, sans-serif" font-size="18">Confirmar contraseña</text>
  <text x="556" y="606" fill="#ffffff" font-family="Inter, sans-serif" font-size="22" font-weight="700">Registrarme</text>
</svg>
